<svg width="33" height="47" viewBox="0 0 33 47" fill="none" xmlns="http://www.w3.org/2000/svg">
<path fill-rule="evenodd" clip-rule="evenodd" d="M28.3305 2.69464H29.6796C31.1697 2.69464 32.3777 3.90108 32.3778 5.38936V43.6316C32.3755 45.491 30.8668 46.9978 29.0051 47H3.3727C1.51091 46.9977 0.00221332 45.491 0 43.6316V5.38928C0 3.90108 1.208 2.69464 2.69812 2.69464H4.04721V2.021C4.04721 0.904792 4.95317 0 6.07082 0C7.18847 0 8.09443 0.904792 8.09443 2.021V2.69464H24.2833V2.021C24.2833 0.904792 25.1892 0 26.3069 0C27.4245 0 28.3305 0.904792 28.3305 2.021V2.69464ZM26.3069 1.34736C25.9343 1.34736 25.6324 1.64893 25.6324 2.021V4.71564C25.6324 5.08771 25.9343 5.38928 26.3069 5.38928C26.6794 5.38928 26.9814 5.08771 26.9814 4.71564V2.021C26.9814 1.64893 26.6794 1.34736 26.3069 1.34736ZM6.07082 1.34736C5.69827 1.34736 5.39631 1.64893 5.39631 2.021V4.71564C5.39631 5.08771 5.69827 5.38928 6.07082 5.38928C6.44337 5.38928 6.74533 5.08771 6.74533 4.71564V2.021C6.74533 1.64893 6.44337 1.34736 6.07082 1.34736ZM29.005 45.6526C30.1226 45.6526 31.0286 44.7478 31.0286 43.6316L31.0287 9.43136H1.3491V43.6316C1.3491 44.7478 2.25514 45.6526 3.3727 45.6526H29.005ZM1.3491 8.084H31.0286L31.0287 5.38936C31.0287 4.64522 30.4247 4.042 29.6796 4.042H28.3305V4.71564C28.3305 5.83185 27.4245 6.73664 26.3069 6.73664C25.1892 6.73664 24.2833 5.83177 24.2833 4.71564V4.042H8.09443V4.71564C8.09443 5.83185 7.18839 6.73664 6.07082 6.73664C4.95325 6.73664 4.04721 5.83177 4.04721 4.71564V4.042H2.69819C1.9531 4.042 1.3491 4.64522 1.3491 5.38936V8.084ZM9.61258 21.6954C9.36116 21.3919 8.91283 21.3509 8.61122 21.6039C8.30962 21.8569 8.26892 22.308 8.52034 22.6115L12.0713 26.8992C12.1967 27.051 12.379 27.1439 12.5748 27.1557H12.6174C12.7988 27.1553 12.9732 27.0856 13.1053 26.9605L25.8886 14.8122C26.1737 14.541 26.1864 14.0886 25.917 13.8017C25.6475 13.5148 25.1979 13.502 24.9128 13.7732L12.6792 25.3992L9.61258 21.6954ZM9.61267 34.2286C9.36125 33.9251 8.91292 33.8841 8.61131 34.1371C8.3097 34.3901 8.26901 34.8412 8.52043 35.1447L12.0714 39.4324C12.1968 39.5842 12.3791 39.6771 12.5749 39.6889H12.6175C12.7988 39.6886 12.9733 39.6188 13.1054 39.4938L25.8887 27.3454C26.1738 27.0742 26.1865 26.6219 25.917 26.335C25.6476 26.048 25.198 26.0352 24.9129 26.3064L12.6792 37.9325L9.61267 34.2286Z" fill="black"/>
</svg>
